Coordinates
version=1
nRows=22
nColumns=24
inDegrees=yes

Units are S.I. units (second, meters, Newtons, ...)
Angles are in degrees.

endheader
time	pelvis_tilt	pelvis_list	pelvis_rotation	pelvis_tx	pelvis_ty	pelvis_tz	hip_flexion_r	hip_adduction_r	hip_rotation_r	knee_angle_r	ankle_angle_r	subtalar_angle_r	mtp_angle_r	hip_flexion_l	hip_adduction_l	hip_rotation_l	knee_angle_l	ankle_angle_l	subtalar_angle_l	mtp_angle_l	lumbar_extension	lumbar_bending	lumbar_rotation
      1.06700000	     -2.60716105	     -1.71576841	     -4.10905175	     -0.15241897	      0.97008261	      0.33472027	    -11.99542710	      4.32275146	     -5.30250895	     -9.22829363	     14.21877483	      5.56453464	      5.73379680	     25.71290618	     -1.07974657	     -5.81488815	      0.05383847	      0.36162086	     -2.18696026	     -0.84328009	     -0.87609044	      5.57038308	      7.28364255
      1.07116667	     -2.68522604	     -1.64356167	     -4.15604860	     -0.14661925	      0.96941301	      0.33443311	    -12.02520852	      4.16457184	     -5.34616624	     -9.69937297	     14.27801138	      5.70396876	      5.85342553	     25.68231832	     -0.95410857	     -5.80087283	      0.17233896	      0.15545290	     -2.46439451	     -0.76027834	     -0.75904794	      5.49549032	      7.41961252
      1.07533333	     -2.73960129	     -1.55572601	     -4.18417931	     -0.14076956	      0.96883829	      0.33413805	    -12.10151206	      4.00180087	     -5.33333442	    -10.11765037	     14.18647536	      5.64828093	      5.89182046	     25.67560640	     -0.81344393	     -5.89482613	      0.11707352	      0.01406185	     -2.59823114	     -0.73187032	     -0.66682004	      5.41647499	      7.42459652
      1.07950000	     -2.84733580	     -1.46540653	     -4.21223805	     -0.13495481	      0.96823910	      0.33382758	    -12.06686705	      3.83631322	     -5.33218489	    -10.64391693	     14.19834705	      5.66768377	      6.03298738	     25.71533780	     -0.67050092	     -5.82993809	      0.02523313	     -0.27903906	     -3.00694396	     -0.62388818	     -0.52962540	      5.31911412	      7.51048479
      1.08366667	     -2.94040258	     -1.36112282	     -4.23307366	     -0.12908438	      0.96771623	      0.33351756	    -12.04283360	      3.65855952	     -5.32765442	    -11.17445419	     14.11483352	      5.61243689	      6.23430573	     25.74892163	     -0.51426570	     -5.77984990	     -0.15046340	     -0.55747731	     -3.40822599	     -0.45928525	     -0.37880053	      5.19097157	      7.55032088
      1.08783333	     -3.03128329	     -1.24366527	     -4.23401853	     -0.12317412	      0.96725110	      0.33319276	    -12.01832690	      3.47685619	     -5.29663082	    -11.70756364	     14.01978464	      5.48539088	      6.40516989	     25.80339885	     -0.34265743	     -5.75610866	     -0.42428663	     -0.87566261	     -3.76035071	     -0.31680589	     -0.22929345	      5.05132222	      7.56864101
      1.09200000	     -3.13366381	     -1.11894089	     -4.23036742	     -0.11724908	      0.96682579	      0.33285444	    -11.95472221	      3.28891785	     -5.26179194	    -12.28729149	     13.87946619	      5.32200187	      6.57144129	     25.87706531	     -0.16447552	     -5.69806129	     -0.76152261	     -1.20442171	     -4.15988414	     -0.17683357	     -0.06434921	      4.90086701	      7.58221514
      1.09616667	     -3.24202664	     -0.98644620	     -4.21580315	     -0.11130342	      0.96644381	      0.33249170	    -11.86534759	      3.09677607	     -5.21959627	    -12.90182355	     13.72154673	      5.12398527	      6.76247861	     25.96445551	      0.02511024	     -5.60462652	     -1.15325654	     -1.57172261	     -4.62585764	     -0.01963383	      0.10585081	      4.75031597	      7.58996144
      1.10033333	     -3.31046914	     -0.83526040	     -4.18139235	     -0.10530624	      0.96615999	      0.33209604	    -11.80154338	      2.88150048	     -5.21860459	    -13.53708263	     13.41912984	      4.88547049	      9.82022447	     26.00998793	      0.24224346	     -5.50354913	     -1.57971133	     -1.97752951	     -5.11090735	      2.45070556	      0.23565956	      4.56646341	      7.55501892
      1.10450000	     -3.43852323	     -0.69324856	     -4.15430806	     -0.09932238	      0.96586333	      0.33171974	    -11.64414266	      2.68803025	     -5.15304371	    -14.23138976	     13.20091128	      4.60465047	      9.84620143	     26.14232707	      0.43831962	     -5.41696662	     -2.08646985	     -2.37786444	     -5.55348920	      2.45099014	      0.43473631	      4.39925124	      7.56695673
      1.10866667	     -3.54929391	     -0.54965280	     -4.11068396	     -0.09331787	      0.96563862	      0.33131169	    -11.48116541	      2.49498065	     -5.09197008	    -14.96720762	     12.92205964	      4.28897584	      9.90561923	     26.24894477	      0.64540170	     -5.26946976	     -2.60307533	     -2.79265394	     -6.06228915	      2.46668775	      0.61881074	      4.22408273	      7.54656161
      1.11283333	     -3.66284678	     -0.40037512	     -4.05761969	     -0.08729491	      0.96546281	      0.33088573	    -11.28734738	      2.29869763	     -5.02960194	    -15.75014534	     12.59892907	      3.94786933	      9.99955786	     26.36356982	      0.86033825	     -5.11573057	     -3.15103711	     -3.21152087	     -6.56409991	      2.49436496	      0.80687354	      4.03867524	      7.51480653
      1.11700000	     -3.77433295	     -0.24680676	     -3.99610521	     -0.08125839	      0.96534333	      0.33044311	    -11.06591236	      2.10032667	     -4.96180530	    -16.58123025	     12.23127293	      3.57127564	     10.14096103	     26.47615296	      1.08274728	     -4.94393801	     -3.71787518	     -3.63293181	     -7.07390354	      2.53433685	      0.99300863	      3.85106255	      7.47568877
      1.12116667	     -3.87920357	     -0.08978545	     -3.92495127	     -0.07520265	      0.96528074	      0.32997970	    -10.82307325	      1.89888382	     -4.90379155	    -17.45744559	     11.80549829	      3.19086313	     10.31682840	     26.58502635	      1.31120004	     -4.78320469	     -4.30588221	     -4.05242325	     -7.54968786	      2.57829716	      1.17581592	      3.65612556	      7.43153207
      1.12533333	     -3.93298475	      0.08566175	     -3.83677941	     -0.06911151	      0.96534079	      0.32949300	    -10.60607075	      1.67758584	     -4.86136805	    -18.38537762	     11.35830422	      2.67026403	     11.04315108	     26.60652529	      1.57293811	     -4.55039662	     -4.84052486	     -4.48270565	     -8.07698107	      2.74214564	      1.29624105	      3.43237490	      7.37599940
      1.12950000	     -4.06492056	      0.24044653	     -3.75968796	     -0.06304828	      0.96533389	      0.32901409	    -10.26374637	      1.48041280	     -4.79459802	    -19.36766959	     10.81269121	      2.33733856	     11.34111363	     26.77561115	      1.79191169	     -4.45555921	     -5.52266928	     -4.80045440	     -8.46230726	      2.79346894	      1.51449540	      3.24210733	      7.32108180
      1.13366667	     -4.16268873	      0.41125520	     -3.68135873	     -0.05696414	      0.96543631	      0.32852917	     -9.91548516	      1.26026259	     -4.74735879	    -20.41980427	     10.17079728	      1.94419906	     11.55017151	     26.85824876	      2.03136561	     -4.31426068	     -6.10679603	     -5.17852238	     -8.77864620	      2.81931860	      1.69427003	      3.03024578	      7.26441814
      1.13783333	     -4.23585145	      0.58667483	     -3.58852903	     -0.05087639	      0.96560155	      0.32801594	     -9.56184724	      1.03519482	     -4.70658161	    -21.52097711	      9.52036245	      1.50405310	     11.81796609	     26.91831434	      2.28449836	     -4.16056566	     -6.70975733	     -5.49583910	     -9.15007056	      2.84369326	      1.84263139	      2.80932733	      7.19927718
      1.14200000	     -4.25482989	      0.77108164	     -3.47155607	     -0.04474757	      0.96588978	      0.32746755	     -9.25608397	      0.79843041	     -4.69247687	    -22.61310313	      8.67399133	      0.90372892	     16.72387403	     26.91028018	      2.56133770	     -3.98528797	     -7.30745406	     -5.74260558	     -9.52063435	      3.17538476	      1.92167878	      2.56624655	      7.14217563
      1.14616667	     -4.33930256	      0.96888505	     -3.40055235	     -0.03867238	      0.96612052	      0.32695780	     -8.78864320	      0.53140682	     -4.66802799	    -23.87442828	      7.95171886	      0.58572842	     16.76240702	     26.97005809	      2.82015863	     -3.91562476	     -7.90154586	     -5.97417821	     -9.73036216	      3.16723021	      2.08772376	      2.32452116	      7.07059440
      1.15033333	     -4.39055149	      1.16325309	     -3.30808887	     -0.03259484	      0.96643295	      0.32642445	     -8.33831903	      0.27285062	     -4.64329197	    -25.14963423	      7.10818017	      0.18060770	     16.83500409	     26.98163856	      3.08940752	     -3.80027274	     -8.47877014	     -6.15225703	     -9.97024244	      3.15453255	      2.20871573	      2.07853119	      7.00685393
      1.15450000	     -4.44132285	      1.35609985	     -3.21626818	     -0.02655356	      0.96677218	      0.32588541	     -7.84651657	      0.01738942	     -4.59508512	    -26.48579083	      6.25588460	     -0.31047860	     17.11475829	     26.98750078	      3.36075142	     -3.65572922	     -9.05318076	     -6.27180785	    -10.29212877	      3.11098464	      2.32301856	      1.83891102	      6.92968936
